<svg version="1.1" xmlns="http://www.w3.org/2000/svg">
    <symbol id="bilibili" viewBox="0 0 32 34">
        <path d="M30.828 30.422c-.264.001-.531.024-.792-.004-.958-.104-1.656.984-1.988 2.131-.299 1.033-1.434 1.561-2.456 1.455-1.18-.121-1.961-.796-2.262-1.863-.181-.645-.728-1.145-1.33-1.141-4.153.024-7.847.012-12 0-.478-.001-.988.457-1.128 1.02-.299 1.208-1.326 1.975-2.463 1.994-1.177.02-2.2-.727-2.543-1.981-.144-.525-.387-1.648-.889-1.62-.646.036-1.296.018-1.944.007-.708-.013-1.021-.297-1.021-.969.005-6.833.015-13.665.033-20.498.002-.706.295-.944 1.109-.945 3.337-.004 6.674-.002 10.011-.002h.698l.064-.173-2.324-1.222c-1.285-.678-2.572-1.354-3.855-2.035-.52-.276-.736-.697-.442-1.219.297-.528.788-.56 1.301-.29 3.013 1.589 6.027 3.176 9.029 4.782.769.412 2.153.165 2.648-.531L22.888.825c.054-.076.106-.155.162-.23.438-.588.935-.747 1.387-.4.523.401.433.877.097 1.354l-1.868 2.648-2.68 3.809h.894c3.314 0 6.627-.001 9.94.001 1.012.001 1.168.154 1.169 1.138.01 6.716.019 13.432.025 20.148.001.96-.176 1.123-1.186 1.129zm-4.98 2.009c.53-.035.782-1.439.943-1.97h-2.004c.197.584.47 2.01 1.061 1.97zm-19.53.001c.587.036.864-1.383 1.039-1.966H5.383c.134.549.41 1.934.935 1.966zM30 10H2v19h28V10zM4 13.882c.002-.926.449-1.831 1.381-1.832 7.113-.001 13.66-.052 20.773-.05.946 0 1.843.966 1.846 1.882.012 4.418-.007 7.818 0 12.236.002.944-.854 1.881-1.846 1.882-3.546.002-6.609 0-10.154 0s-6.608.002-10.154 0c-1.032-.001-1.847-.865-1.846-1.882.005-4.396-.008-7.84 0-12.236zm22.297 12.099c0-4.177-.143-8.01-.143-12.099H5.846c0 4.153-.024 7.984-.024 12.099h20.475zm-14.689-9.663c.058-.026.13-.021.372-.056.141.138.497.328.535.566.043.278-.106.763-.321.872-1.314.667-2.664 1.268-4.017 1.857-.412.179-.865.044-.97-.396-.069-.288.055-.835.262-.939 1.354-.685 2.753-1.282 4.139-1.904zm.413 4.458c.256-.009.587.345.772.615.148.215.086.559.19.819.197.495.568.966 1.116.85.405-.085.775-.49 1.079-.826.15-.166.125-.494.161-.751.068-.484.354-.782.832-.77.437.011.721.275.777.748.036.299.044.67.223.869.286.318.698.702 1.067.714.334.011.74-.393 1.003-.705.175-.207.165-.573.22-.872.089-.477.365-.767.859-.729.491.038.749.354.73.847-.047 1.251-.544 2.268-1.716 2.826-1.092.521-2.112.297-3.006-.504-.048-.043-.106-.074-.166-.115-.272.189-.524.408-.813.559-.945.493-1.891.452-2.763-.154-.962-.67-1.391-1.646-1.305-2.781.018-.246.474-.631.74-.64zm6.976-4.516c.232-.406.644-.517 1.029-.298 1.529.871 3.041 1.772 4.543 2.686.18.109.264.371.327.465.017.743-.598 1.147-1.164.828a164.475 164.475 0 0 1-4.487-2.652c-.392-.238-.475-.633-.248-1.029z" class="cls-1"/>
    </symbol>
    <symbol id="CloudMusic" viewBox="0 0 31.031 34">
        <path d="M21.279-.015c.351.056.706.096 1.054.171a7.801 7.801 0 0 1 3.278 1.567c.633.508.891 1.171.708 1.956-.165.706-.626 1.182-1.338 1.385-.674.192-1.282.046-1.835-.387-.701-.55-1.479-.93-2.411-.849-.79.069-1.545.882-1.477 1.608.03.325.149.642.233.962.149.564.303 1.127.454 1.691.026.097.051.174.19.182 2.123.113 4.036.789 5.741 2.042 1.676 1.232 3.048 2.711 3.968 4.569a11.316 11.316 0 0 1 1.153 4.315c.133 2.009-.108 3.974-.907 5.829-1.858 4.312-5.125 7.093-9.719 8.371a16.438 16.438 0 0 1-5.352.576c-3.769-.21-7.034-1.603-9.784-4.122C2.521 27.367.829 24.312.241 20.726c-.801-4.878.427-9.251 3.676-13.044 1.784-2.084 4.011-3.585 6.608-4.554.895-.335 1.874-.023 2.365.741.502.781.384 1.786-.311 2.407a2.354 2.354 0 0 1-.692.414c-3.959 1.581-6.574 4.366-7.613 8.428-1.008 3.94-.117 7.547 2.456 10.725 1.613 1.992 3.697 3.33 6.219 3.987 1.63.425 3.277.452 4.937.201 1.713-.259 3.313-.81 4.748-1.771 1.974-1.323 3.381-3.086 4.084-5.33.607-1.937.628-3.893-.122-5.815-.604-1.547-1.672-2.737-3.011-3.719-.715-.525-1.483-.934-2.359-1.135-.04-.009-.081-.014-.153-.025.12.448.231.874.346 1.299.278 1.024.562 2.047.835 3.073.593 2.23.019 4.183-1.55 5.847-1.452 1.54-3.3 2.21-5.419 2.009-2.36-.224-4.045-1.477-5.144-3.506-.576-1.062-.824-2.207-.87-3.405-.073-1.908.382-3.669 1.499-5.244 1.2-1.691 2.861-2.776 4.825-3.45.154-.053.311-.101.492-.16-.106-.393-.216-.776-.311-1.162-.131-.532-.299-1.061-.365-1.601-.194-1.598.307-2.987 1.435-4.151C17.77.833 18.89.229 20.232.048c.148-.02.295-.042.443-.063h.604zm-4.191 12.402c-1.163.362-2.167.914-2.92 1.832-1.007 1.23-1.208 2.643-.887 4.144.167.78.557 1.447 1.241 1.913.855.582 2.02.557 2.914-.048.914-.62 1.321-1.619 1.054-2.643-.292-1.122-.603-2.24-.906-3.36l-.496-1.838z" fill-rule="evenodd"/>
    </symbol>
    <symbol id="csdn" viewBox="0 0 32.41 28.313">
        <path d="M32.392 1.067l-.821 6.044c-3.579-.552-7.14-1.062-10.72-.766-3.277.271-6.453.89-8.772 3.402-4.258 4.611-1.941 10.967 4.491 12.101 4.004.707 8.057.326 12.073-.224-.155 3.11-.163 2.636-.303 5.677-.03.665.122.404-4.587.882-4.995.25-9.986.31-14.773-1.463C4.444 25.041.872 22.37.148 17.436c-.745-5.078 1.385-9.178 5.464-12.34 6.121-4.747 16.831-6.417 26.78-4.029z" fill-rule="evenodd"/>
    </symbol>
    <symbol id="email" viewBox="0 0 1024 1024">
        <path d="M1008.032 172.48A47.6 47.6 0 0 0 976 160H48c-12.368 0-23.52 4.8-32.032 12.48L512 560l496.032-387.52zm-993.728 1.376A47.84 47.84 0 0 0 0 208v608c0 12.624 4.976 24.016 12.944 32.592l313.104-372.736-311.744-302zM512 656L381.824 529.904 15.088 850.8A47.712 47.712 0 0 0 48 864h928a47.68 47.68 0 0 0 32.912-13.2l-366.72-320.896L512 656zm497.68-482.144l-311.728 302 313.104 372.736A47.68 47.68 0 0 0 1024 816V208c0-13.36-5.488-25.44-14.32-34.144z"/>
    </symbol>
    <symbol id="eyes" viewBox="0 0 511.999 511.999">
        <path d="M508.745,246.041c-4.574-6.257-113.557-153.206-252.748-153.206S7.818,239.784,3.249,246.035c-4.332,5.936-4.332,13.987,0,19.923c4.569,6.257,113.557,153.206,252.748,153.206s248.174-146.95,252.748-153.201
		C513.083,260.028,513.083,251.971,508.745,246.041z M255.997,385.406c-102.529,0-191.33-97.533-217.617-129.418
		c26.253-31.913,114.868-129.395,217.617-129.395c102.524,0,191.319,97.516,217.617,129.418
		C447.361,287.923,358.746,385.406,255.997,385.406z"/>
        <path d="M255.997,154.725c-55.842,0-101.275,45.433-101.275,101.275s45.433,101.275,101.275,101.275
		s101.275-45.433,101.275-101.275S311.839,154.725,255.997,154.725z M255.997,323.516c-37.23,0-67.516-30.287-67.516-67.516
		s30.287-67.516,67.516-67.516s67.516,30.287,67.516,67.516S293.227,323.516,255.997,323.516z"/>
    </symbol>
    <symbol id="facebook" viewBox="0 0 512 512">
        <path d="m297.277344 508.667969c-2.132813.347656-4.273438.667969-6.421875.960937 2.148437-.292968 4.289062-.613281 6.421875-.960937zm0 0"/>
        <path d="m302.398438 507.792969c-1.019532.1875-2.039063.359375-3.058594.535156 1.019531-.175781 2.039062-.347656 3.058594-.535156zm0 0"/>
        <path d="m285.136719 510.339844c-2.496094.28125-5.007813.53125-7.527344.742187 2.519531-.210937 5.03125-.460937 7.527344-.742187zm0 0"/>
        <path d="m290.054688 509.738281c-1.199219.160157-2.40625.308594-3.609376.449219 1.203126-.140625 2.410157-.289062 3.609376-.449219zm0 0"/>
        <path d="m309.367188 506.410156c-.898438.191406-1.800782.382813-2.703126.566406.902344-.183593 1.804688-.375 2.703126-.566406zm0 0"/>
        <path d="m326.664062 502.113281c-.726562.207031-1.453124.402344-2.179687.605469.726563-.203125 1.453125-.398438 2.179687-.605469zm0 0"/>
        <path d="m321.433594 503.542969c-.789063.207031-1.582032.417969-2.375.617187.792968-.199218 1.585937-.40625 2.375-.617187zm0 0"/>
        <path d="m314.589844 505.253906c-.835938.195313-1.679688.378906-2.523438.566406.84375-.1875 1.6875-.371093 2.523438-.566406zm0 0"/>
        <path d="m277.527344 511.089844c-1.347656.113281-2.695313.214844-4.046875.304687 1.351562-.089843 2.699219-.191406 4.046875-.304687zm0 0"/>
        <path d="m512 256c0-141.363281-114.636719-256-256-256s-256 114.636719-256 256 114.636719 256 256 256c1.503906 0 3-.03125 4.5-.058594v-199.285156h-55v-64.097656h55v-47.167969c0-54.703125 33.394531-84.476563 82.191406-84.476563 23.367188 0 43.453125 1.742188 49.308594 2.519532v57.171875h-33.648438c-26.546874 0-31.6875 12.617187-31.6875 31.128906v40.824219h63.476563l-8.273437 64.097656h-55.203126v189.453125c107.003907-30.675781 185.335938-129.257813 185.335938-246.109375zm0 0"/>
        <path d="m272.914062 511.429688c-2.664062.171874-5.339843.308593-8.023437.398437 2.683594-.089844 5.359375-.226563 8.023437-.398437zm0 0"/>
        <path d="m264.753906 511.835938c-1.414062.046874-2.832031.082031-4.25.105468 1.417969-.023437 2.835938-.058594 4.25-.105468zm0 0"/>
    </symbol>
    <symbol id="fenlei" viewBox="0 0 1024 1024">
        <path d="M958.4 284.8H473.6l-91.2-148.8c-1.6-1.6-3.2-3.2-3.2-4.8-12.8-14.4-28.8-20.8-48-20.8H62.4c-4.8 0-43.2 1.6-43.2 48V872c0 1.6 4.8 81.6 52.8 81.6h884.8c48 0 52.8-80 52.8-81.6V337.6c1.6-28.8-22.4-52.8-51.2-52.8z m-16 606.4H88c-1.6-6.4-3.2-14.4-4.8-17.6V176h246.4l99.2 158.4c6.4 9.6 17.6 14.4 27.2 14.4H947.2v524.8c0 3.2-1.6 11.2-4.8 17.6z"/>
        <path d="M953.6 196.8H532.8c-17.6 0-32-14.4-32-32s14.4-32 32-32h422.4c17.6 0 32 14.4 32 32s-16 32-33.6 32z"/>
    </symbol>
    <symbol id="github" viewBox="0 0 512 512">
        <path d="M256 0C114.615 0 0 114.615 0 256s114.615 256 256 256 256-114.615 256-256S397.385 0 256 0zm152.028 408.028c-19.759 19.758-42.756 35.266-68.354 46.093a214.076 214.076 0 0 1-19.8 7.246V423c0-20.167-6.917-35-20.75-44.5 8.667-.833 16.625-2 23.875-3.5s14.917-3.667 23-6.5 15.333-6.208 21.75-10.125 12.583-9 18.5-15.25 10.875-13.333 14.875-21.25 7.167-17.417 9.5-28.5 3.5-23.292 3.5-36.625c0-25.833-8.417-47.833-25.25-66 7.667-20 6.833-41.75-2.5-65.25l-6.25-.75c-4.333-.5-12.125 1.333-23.375 5.5s-23.875 11-37.875 20.5c-19.833-5.5-40.417-8.25-61.75-8.25-21.5 0-42 2.75-61.5 8.25-8.833-6-17.208-10.958-25.125-14.875-7.917-3.917-14.25-6.583-19-8s-9.167-2.292-13.25-2.625-6.708-.417-7.875-.25-2 .333-2.5.5c-9.333 23.667-10.167 45.417-2.5 65.25-16.833 18.167-25.25 40.167-25.25 66 0 13.333 1.167 25.542 3.5 36.625s5.5 20.583 9.5 28.5 8.958 15 14.875 21.25 12.083 11.333 18.5 15.25 13.667 7.292 21.75 10.125 15.75 5 23 6.5 15.208 2.667 23.875 3.5c-13.667 9.333-20.5 24.167-20.5 44.5v39.115a213.687 213.687 0 0 1-22.3-7.994c-25.597-10.827-48.594-26.335-68.353-46.093-19.758-19.759-35.267-42.756-46.093-68.354C46.679 313.195 41 285.043 41 256s5.679-57.195 16.879-83.675c10.827-25.597 26.335-48.594 46.093-68.353s42.756-35.267 68.353-46.093C198.805 46.679 226.957 41 256 41s57.195 5.679 83.675 16.879c25.598 10.827 48.595 26.335 68.354 46.093 19.758 19.758 35.266 42.756 46.093 68.353C465.321 198.805 471 226.957 471 256s-5.679 57.195-16.879 83.675c-10.827 25.597-26.335 48.595-46.093 68.353z"/>
    </symbol>
    <symbol id="jianshu" viewBox="0 0 31 32.031">
        <path d="M9 2l-1.314.442L6 4h6l1.971-1.422 2.235 2.306H8.663c1.397.634 2.211 1.176 2.445 1.628.231.454.349.769.349.949 0 .183-.094.454-.28.814-.187.363-.467.59-.838.679-.373.091-.607-.18-.698-.814a16.372 16.372 0 0 0-.629-1.56c-.233-.496-.628-1.062-1.187-1.696H5.73c-.653.542-1.397 1.268-2.235 2.17A24.211 24.211 0 0 1 .283 9.903l-.28-.407c1.209-1.265 2.396-2.757 3.562-4.477C4.728 3.303 5.59 1.628 6.149 0L9 2zM6 14c-.453 10.453-.491 13.101 0 17l-3 1c.091-4.158 0-7.795 0-12 0-4.206.091-7.552 0-9l4 1-1 2zm-.13-5.996c2.141 1.085 3.374 1.878 3.701 2.374.325.498.489.929.489 1.289 0 .271-.094.589-.279.949a1.811 1.811 0 0 1-.838.814c-.374.183-.607-.044-.699-.678a15.19 15.19 0 0 0-.838-1.899c-.373-.723-.977-1.492-1.816-2.306l.28-.543zM10 28c.414-3.29.303-6.143 0-9-.3-2.827.099-4.724 0-6l2.419 1.3h6.362l.908-1.471 3.22 1.955L21 16c0 5.788-.144 9.3.697 10.406L19 27v-1h-7l.419 1.393L10 28zm11 0c1.676.18 2.302.953 3 1 .698.044.627.089 1 0 .371-.091 1-.457 1-1V11H16c-.747 0-1.977.729-3 1l-.984-1.961h14.246l1.257-1.221 1.956 1.899L28 12v17c0 .631.078.686-.201 1.185-.28.495-2.14 1.377-3.349 1.831-.373-1.357-2.004-2.306-4.888-2.849L21 28zm-9-13v4h7v-4h-7zm0 5v5h7v-5h-7zm9.793-18.101l-1.257.543L20 4h7l1.777-1.422 2.234 2.306h-9.218c1.676.814 2.584 1.38 2.723 1.696.14.318.21.566.21.746 0 .182-.048.386-.14.61a1.52 1.52 0 0 1-.489.611c-.233.182-.397.271-.489.271-.187 0-.349-.157-.488-.475-.14-.316-.304-.79-.489-1.424-.188-.543-.653-1.221-1.397-2.035H18.86a47.06 47.06 0 0 1-4.47 4.07l-.419-.407c1.397-1.537 2.536-3.097 3.422-4.681.884-1.581 1.512-2.825 1.886-3.73l2.514 1.763z" fill-rule="evenodd"/>
    </symbol>
    <symbol id="lofter" viewBox="0 0 24.281 30.531">
        <path d="M7.095-.011v23.894l17.2-.05v6.7H.013V-.011h7.082z" fill-rule="evenodd"/>
    </symbol>
    <symbol id="message" viewBox="0 0 1024 1024">
		<path d="M512 928c-10.336 0-20.032-4.992-26.016-13.408l-64.896-90.848C213.344 787.168 64 630.976 64 448 64 236.256 264.96 64 512 64s448 172.256 448 384c0 183.008-149.344 339.168-357.056 375.712l-64.896 90.88C532.032 923.008 522.336 928 512 928zM512 128C300.256 128 128 271.552 128 448c0 154.976 132.928 287.328 316.064 314.656 8.576 1.28 16.288 6.016 21.312 13.056L512 840.928l46.624-65.248c5.024-7.072 12.704-11.776 21.312-13.056C763.072 735.328 896 603.008 896 448 896 271.552 723.744 128 512 128zM288.032 512c-35.296 0-64-28.704-64-64s28.704-64 64-64 64 28.704 64 64S323.328 512 288.032 512zM288.064 448C288.032 448 288 448 288 448l0.032 32L288.064 448zM736.032 512c-35.296 0-64-28.704-64-64s28.704-64 64-64 64 28.704 64 64S771.328 512 736.032 512zM736.064 448C736.032 448 736 448 736 448l0.032 32L736.064 448zM512.032 512c-35.296 0-64-28.704-64-64s28.704-64 64-64c35.296 0 64 28.704 64 64S547.328 512 512.032 512zM512.064 448c0 0-0.064 0-0.064 0l0.032 32L512.064 448z"/>
    </symbol>
    <symbol id="none" viewBox="0 0 1024 1024">
        <path d="M512.6 1023.2c-69 0-135.9-13.5-198.9-40.2-60.8-25.7-115.5-62.6-162.4-109.5S67.6 772 41.8 711.2c-26.6-63-40.2-129.9-40.2-198.9s13.5-135.9 40.2-198.9c25.7-60.8 62.6-115.5 109.5-162.4S252.9 67.3 313.7 41.6C376.7 15 443.6 1.4 512.6 1.4s135.9 13.5 198.9 40.2c60.8 25.7 115.5 62.6 162.4 109.5s83.7 101.5 109.5 162.4c26.6 63 40.2 129.9 40.2 198.9s-13.5 135.9-40.2 198.9c-25.7 60.8-62.6 115.5-109.5 162.4S772.3 957.3 711.4 983c-63 26.7-129.9 40.2-198.8 40.2z m0-957.8c-246.4 0-446.9 200.5-446.9 446.9 0 246.4 200.5 446.9 446.9 446.9 246.4 0 446.9-200.5 446.9-446.9C959.4 265.9 759 65.4 512.6 65.4z"/>
        <path d="M508.3 688.3c-68.4 0-132.7-26.6-181.1-75s-75-112.7-75-181.1 26.6-132.7 75-181.1 112.7-75 181.1-75c68.4 0 132.7 26.6 181.1 75s75 112.7 75 181.1-26.6 132.7-75 181.1-112.7 75-181.1 75z m0-448.2c-105.9 0-192.1 86.2-192.1 192.1 0 105.9 86.2 192.1 192.1 192.1 105.9 0 192.1-86.2 192.1-192.1 0-105.9-86.2-192.1-192.1-192.1z"/>
        <path d="M209.6 915.2c-3.4 0-6.8-0.5-10.2-1.7-16.8-5.6-25.8-23.8-20.2-40.5 11.6-34.5 28.4-66.8 50-96.2 21.4-29 46.9-54.5 76-75.8 60.5-44.2 132.1-67.6 207.3-67.6 75.1 0 146.8 23.4 207.3 67.6 29.1 21.3 54.7 46.8 76 75.8 21.6 29.4 38.4 61.8 50 96.2 5.6 16.8-3.4 34.9-20.2 40.5-16.8 5.6-34.9-3.4-40.5-20.2-39.3-117.2-148.9-196-272.6-196-123.7 0-233.3 78.8-272.6 196-4.4 13.4-16.9 21.9-30.3 21.9z"/>
    </symbol>
    <symbol id="qq" viewBox="0 0 28.031 30">
        <path d="M28.003 20.031c-.648-3.656-3.37-6.051-3.37-6.051.389-3.319-1.037-3.908-1.037-3.908-.3-10.269-9.394-10.09-9.586-10.085-.191-.005-9.287-.184-9.585 10.085 0 0-1.426.589-1.037 3.908 0 0-2.722 2.395-3.37 6.051 0 0-.346 6.177 3.111.756 0 0 .777 2.059 2.203 3.908 0 0-2.549.841-2.333 3.026 0 0-.087 2.436 5.443 2.269 0 0 3.888-.294 5.055-1.891H14.524c1.167 1.597 5.055 1.891 5.055 1.891 5.528.167 5.443-2.269 5.443-2.269.215-2.185-2.333-3.026-2.333-3.026 1.426-1.849 2.203-3.908 2.203-3.908 3.455 5.421 3.111-.756 3.111-.756z" fill-rule="evenodd"/>
        </symbol>
    <symbol id="qzone" viewBox="0 0 37.969 34.969">
        <path d="M27.867 22.059s.434 1.232.98 2.931c-3.257-.304-8.107-.838-12.423-1.629-.154-.671 11.848-8.932 11.605-9.413-10.63-1.834-18.49 0-18.49 0l12.872 1.794s-12.154 8.184-12.317 8.961c5.419.973 14.048.891 18.9.746 1.159 3.65 2.682 8.996 1.797 9.415-2.356 1.118-12.276-6.463-12.276-6.463s-9.57 7.096-11.048 6.367c-2.404-1.186.898-12.709.898-12.709s-8.868-7.092-8.376-8.876c.496-1.785 13.514-2.404 13.514-2.404S17.153.439 19.011.012c1.858-.427 5.799 10.105 5.799 10.105s12.306 1.382 13.141 2.484c.836 1.1-10.084 9.458-10.084 9.458zm4.746 3.245s-1.423.079-3.619.145l-.147-.459c2.269.213 3.766.314 3.766.314z" fill-rule="evenodd"/>
    </symbol>
    <symbol id="search" viewBox="0 0 1024 1024">
        <path d="M989.024 924.416L799.488 735.168c53.216-72.736 82.304-161.088 82.304-251.2 0-235.072-191.552-426.336-427.008-426.336S27.744 248.896 27.744 483.968c0 235.104 191.584 426.368 427.04 426.368 64.128 0 125.952-14.112 183.744-41.92 12.256-5.888 17.408-20.576 11.52-32.832-5.92-12.256-20.576-17.376-32.896-11.488-51.072 24.576-105.696 37.024-162.336 37.024-208.32 0-377.76-169.216-377.76-377.184 0-207.968 169.44-377.152 377.76-377.152 208.288 0 377.728 169.216 377.728 377.152 0 86.24-30.144 170.688-84.864 237.792-8 9.792-7.264 24 1.664 32.928L954.208 959.2c4.8 4.8 11.104 7.2 17.408 7.2 6.304 0 12.608-2.4 17.408-7.2 9.632-9.6 9.632-25.184 0-34.784z"/>
    </symbol>
    <symbol id="telegram" viewBox="0 0 24 24">
        <path d="m9.417 15.181-.397 5.584c.568 0 .814-.244 1.109-.537l2.663-2.545 5.518 4.041c1.012.564 1.725.267 1.998-.931l3.622-16.972.001-.001c.321-1.496-.541-2.081-1.527-1.714l-21.29 8.151c-1.453.564-1.431 1.374-.247 1.741l5.443 1.693 12.643-7.911c.595-.394 1.136-.176.691.218z"/>
    </symbol>
    <symbol id="time" viewBox="0 0 97.16 97.16">
		<path d="M48.58,0C21.793,0,0,21.793,0,48.58s21.793,48.58,48.58,48.58s48.58-21.793,48.58-48.58S75.367,0,48.58,0z M48.58,86.823
        c-21.087,0-38.244-17.155-38.244-38.243S27.493,10.337,48.58,10.337S86.824,27.492,86.824,48.58S69.667,86.823,48.58,86.823z"/>
		<path d="M73.898,47.08H52.066V20.83c0-2.209-1.791-4-4-4c-2.209,0-4,1.791-4,4v30.25c0,2.209,1.791,4,4,4h25.832
		c2.209,0,4-1.791,4-4S76.107,47.08,73.898,47.08z"/>
    </symbol>
    <symbol id="Twitter" viewBox="0 0 32 25.81">
        <path d="M32.01 3.047a13.21 13.21 0 0 1-3.773 1.028A6.558 6.558 0 0 0 31.125.469a13.296 13.296 0 0 1-4.17 1.582 6.579 6.579 0 0 0-4.793-2.06c-3.627 0-6.568 2.918-6.568 6.519 0 .507.058 1.008.17 1.485A18.71 18.71 0 0 1 2.228 1.186a6.452 6.452 0 0 0-.889 3.274 6.5 6.5 0 0 0 2.922 5.425 6.569 6.569 0 0 1-2.974-.816l-.001.083c0 3.158 2.264 5.791 5.268 6.39a6.619 6.619 0 0 1-1.73.227 6.54 6.54 0 0 1-1.236-.116 6.563 6.563 0 0 0 6.135 4.525 13.244 13.244 0 0 1-8.156 2.791A13.07 13.07 0 0 1 0 22.876a18.684 18.684 0 0 0 10.067 2.929c12.079 0 18.684-9.93 18.684-18.541 0-.282-.006-.564-.018-.843a13.303 13.303 0 0 0 3.277-3.374z" fill-rule="evenodd"/>
    </symbol>
    <symbol id="wechat" viewBox="0 0 1024 1024">
        <path  d="M512 0C229.216 0 0 229.248 0 512s229.248 512 512 512 512-229.248 512-512S794.752 0 512 0zM393.12 670.048c-39.264 0-76.672-6.816-110.88-19.04l-96.032 64.224v-3.872l31.136-92.768C147.36 572.576 101.952 500 101.952 418.08c0-139.136 130.368-251.968 291.168-251.968 146.56 0 267.456 93.792 287.808 215.744-61.184 1.76-288.192 26.048-263.232 287.104-8.128.576-16.288 1.088-24.576 1.088zM820.576 778.08l19.808 71.04-73.568-44.352c-28.544 10.176-59.776 15.872-92.544 15.872-135.04 0-244.512-95.168-244.512-212.608s109.472-212.608 244.512-212.608c135.04 0 244.512 95.168 244.512 212.608 0 69.664-38.688 131.264-98.176 170.048zM328.352 335.84c0 22.176-17.984 40.16-40.16 40.16s-40.16-17.984-40.16-40.16c0-22.176 17.984-40.16 40.16-40.16s40.16 17.984 40.16 40.16zm208.896 0c0 22.176-17.984 40.16-40.16 40.16s-40.16-17.984-40.16-40.16c0-22.176 17.984-40.16 40.16-40.16s40.16 17.984 40.16 40.16zm102.016 208.864c0 22.176-17.984 40.16-40.16 40.16s-40.16-17.984-40.16-40.16c0-22.176 17.984-40.16 40.16-40.16s40.16 17.984 40.16 40.16zm161.28 0c0 22.176-17.984 40.16-40.16 40.16s-40.16-17.984-40.16-40.16c0-22.176 17.984-40.16 40.16-40.16s40.16 17.984 40.16 40.16z"/>
    </symbol>
    <symbol id="weibo" viewBox="0 0 37 30">
        <path d="M36.539 12.806v.006a1.418 1.418 0 0 1-2.698-.875h-.001a6.974 6.974 0 0 0-1.456-6.82 6.965 6.965 0 0 0-6.631-2.147 1.418 1.418 0 0 1-.592-2.775h.001a9.791 9.791 0 0 1 9.327 3.022 9.803 9.803 0 0 1 2.05 9.589zm-9.818-5.3v-.001a1.22 1.22 0 1 1-.509-2.386 4.772 4.772 0 0 1 5.54 6.141 1.222 1.222 0 0 1-1.536.787 1.222 1.222 0 0 1-.785-1.538h-.002a2.332 2.332 0 0 0-2.708-3.003zm.489 2.284c.641.916.579 2.2-.012 3.688-.273.685.085.791.606.948 2.123.658 4.487 2.252 4.487 5.059 0 4.647-6.697 10.5-16.765 10.5-7.679 0-15.529-3.724-15.529-9.85 0-3.202 2.028-6.905 5.519-10.399 4.663-4.664 10.1-6.789 12.145-4.742.902.902.989 2.464.409 4.329-.302.939.881.419.881.421 3.769-1.579 7.057-1.672 8.259.046zm-1.287 9.611c-.397-4.024-5.687-6.796-11.816-6.19-6.127.607-10.774 4.361-10.376 8.386.398 4.026 5.688 6.797 11.816 6.192 6.129-.606 10.773-4.361 10.376-8.388zM11.584 26.06c-2.946-.952-4.193-3.862-2.903-6.484 1.267-2.571 4.562-4.025 7.478-3.266 3.018.78 4.558 3.629 3.325 6.395-1.251 2.831-4.848 4.34-7.9 3.355zm1.664-5.511c-.949-.398-2.175.011-2.761.93-.593.923-.314 2.022.628 2.451.956.437 2.225.022 2.818-.924.582-.956.275-2.048-.685-2.457zm2.339-.97c-.364-.145-.819.03-1.033.389-.207.36-.093.77.272.92.371.153.845-.023 1.059-.39.205-.369.072-.784-.298-.919z" fill-rule="evenodd"/>
    </symbol>
    <symbol id="youku" viewBox="0 0 35.97 36">
        <path d="M17.991 36.002c-9.938 0-17.994-8.062-17.994-18.007 0-9.946 8.056-18.008 17.994-18.008 9.937 0 17.993 8.062 17.993 18.008 0 9.945-8.056 18.007-17.993 18.007zm0-30.497c-6.892 0-12.48 5.592-12.48 12.49 0 6.897 5.588 12.489 12.48 12.489S30.47 24.892 30.47 17.995c0-6.898-5.587-12.49-12.479-12.49zm-4.368 20.094a.592.592 0 0 1-.827-.489c-.406-4.832-.419-9.592 0-14.271a.592.592 0 0 1 .801-.495c5.053 1.973 9.226 4.404 12.769 7.168a.59.59 0 0 1-.024.942c-3.908 2.755-8.172 5.108-12.719 7.145z" fill-rule="evenodd"/>
    </symbol>
    <symbol id="zhihu" viewBox="0 0 31 33">
        <path d="M26 28l-5 5v-5h-3V5l12.99.169L31 5v23h-5zm2-20h-7v17.966L22 26v2l3.853-2.052L28 26V8zM11 18c-1.042.01-1.076-.219-1.123.905-.03.715-.251 1.421-.386 2.131l-.886 2.849c-.718 1.873-1.53 3.693-2.855 5.251-1.314 1.543-3.103 1.758-4.953 1.823-.288.01-.687.056-.79-.322-.096-.355.253-.54.48-.723C2.436 28.338 3.808 27.19 5 25c.966-1.774 1.684-3.004 2-5 .135-.855-.186-2.023-1-2-1.512.043-4.487-.015-6 0-.049-.005.134-.484.291-.984.324-1.09 1.082-1.98 1.931-1.964 1.319.024 1.46-.094 2.778-.052.835.027 2.009-.132 2-1-.02-1.96-.055-4.041 0-6 .016-.562.394-.793-.138-.837-1.729-.141-1.899-.062-2.717 1.52-.668 1.289-2.046 2.02-3.441 2.366-.753.187-.676.161-.58-.066 1.104-2.593 2.303-5.9 3.349-8.505.43-1.07 2.25-1.851 3.303-2.452 0 0 .246-.178.005.57-.259.806-.603 2.271-.89 3.066-.301.831-.151 1.261.698 1.254 2.522-.021 5.183 0 7.706 0 .595 0 1.101-.1 1.474.53 1.213 2.046.938 1.7-.242 1.719C14.518 7.181 13.008 7.034 12 7c-.763-.026-1.841.39-1.876 1.197C10.03 10.385 9.97 11.999 10 14c.011.711 1.496 1.001 2 1 1.319-.002 1.489.029 2.808.052 1.077.018 1.816.891 2.192 1.948.027.334.269.909 0 1a444.447 444.447 0 0 0-6 0zm4 8c.393.583.444 1.623 0 3-.088.274-.623.137-1.202-.523-1.399-1.596-2.682-3.288-4.035-4.922-.378-.457-.605-.716-.778-.769L11 21c.922 1.089 3.08 3.91 4 5z" fill-rule="evenodd"/>
    </symbol>
	<symbol id="pinna">
            <path d="M12.295,14.201 C12.43,14.088 12.557,13.969 12.676,13.847 C10.687,12.944 9.178,11.848 7.818,10.739 C6.194,10.735 4.52,10.321 3.663,9.262 C4.94,9.905 6.284,9.908 6.737,9.847 C2.898,6.381 1.835,2.992 1.835,2.992 C3.149,5.052 4.536,6.644 5.894,7.908 C5.325,6.82 5.658,4.808 5.658,4.808 C6.765,8.706 6.895,8.768 6.822,8.802 C7.722,9.531 8.697,10.216 9.509,10.739 C9.217,10.059 9.01,9.068 9.037,7.37 C9.037,7.37 9.759,10.932 10.893,11.809 C11.796,12.33 12.591,12.734 13.207,13.041 C14.183,11.585 14.188,7.703 11.796,6.144 C9.218,4.462 4.871,4.398 0.474,0.096 C-0.841,-1.191 1.603,10.132 5.144,13.289 C7.32,15.234 10.152,15.99 12.295,14.201 L12.295,14.201 Z"></path>
            <path d="M11.266,14.064 C11.266,14.064 12.446,14.677 13.8,15.275 C15.154,15.873 15.803,15.752 15.879,15.9 C15.957,16.05 15.918,14.258 15.918,14.258 C15.918,14.258 14.09,14.691 12.055,13.562 L11.266,14.064 L11.266,14.064 Z"></path>
    </symbol>
	<symbol id="code" viewBox="0 -118 512.0005 512">
            <path d="m115.308594 31.097656-71.269532 106.90625 71.269532 106.902344c6.125 9.191406 3.644531 21.609375-5.546875 27.738281-9.167969 6.109375-21.589844 3.667969-27.734375-5.546875l-78.667969-118c-4.480469-6.71875-4.480469-15.472656 0-22.191406l78.667969-118c6.125-9.1875 18.542968-11.671875 27.734375-5.546875 9.191406 6.128906 11.671875 18.546875 5.546875 27.738281zm393.332031 95.808594-78.667969-118c-6.125-9.1875-18.542968-11.671875-27.734375-5.546875-9.191406 6.128906-11.671875 18.546875-5.546875 27.738281l71.273438 106.90625-71.273438 106.902344c-6.125 9.191406-3.644531 21.609375 5.546875 27.738281 9.152344 6.101563 21.582031 3.683594 27.734375-5.546875l78.667969-118c4.480469-6.71875 4.480469-15.472656 0-22.191406zm-162.878906-123.546875c-9.191407-6.125-21.609375-3.640625-27.738281 5.546875l-157.332032 236c-6.125 9.191406-3.644531 21.609375 5.546875 27.738281 9.152344 6.101563 21.582031 3.683594 27.734375-5.546875l157.335938-236c6.125-9.191406 3.644531-21.609375-5.546875-27.738281zm0 0"/>
    </symbol>
	<symbol id="anchor" viewBox="0 0 512 512">
            <path d="M472.934 408.914c-47.063 63.764-128.998 103.825-216.934 103.075-87.936 0.75-169.872-39.312-216.934-103.075l-39.061 39.077v-127.997h127.997l-35.187 35.17c28.219 46.719 75.437 80.296 131.185 89.812v-193.513c-55.123-14.265-95.998-63.889-95.998-123.466 0-70.685 57.312-127.997 127.998-127.997 70.685 0 127.998 57.312 127.998 127.998 0 59.577-40.875 109.201-95.998 123.466v193.512c55.748-9.516 102.967-43.093 131.184-89.812l-35.186-35.17h127.996v127.997l-39.060-39.077zM319.998 127.998c0-35.343-28.654-63.999-63.998-63.999s-63.999 28.656-63.999 63.999c0 35.343 28.655 63.999 63.999 63.999 35.344-0.001 63.998-28.657 63.998-63.999z" />
    </symbol>
	<symbol id="markdown" viewBox="0 0 1024 1024">
              <path d="M895.318 192H128.682C93.008 192 64 220.968 64 256.616v510.698C64 802.986 93.008 832 128.682 832h766.636C930.992 832 960 802.986 960 767.312V256.616C960 220.968 930.992 192 895.318 192zM568.046 704h-112.096v-192l-84.08 107.756L287.826 512v192H175.738V320h112.088l84.044 135.96 84.08-135.96h112.096v384z m167.314 0l-139.27-192h84v-192h112.086v192h84.054l-140.906 192h0.036z"/>
    </symbol>
	<symbol id="paper">
              <path d="m8.37914,0.14619c-2.65679,0 -4.76009,2.10329 -4.76009,4.64939l0,30.55313c0,2.54609 2.1033,4.64939 4.76009,4.64939l23.80044,0c2.54609,0 4.76009,-2.10329 4.76009,-4.64939l0,-25.79304l-9.63088,-9.40948l-18.92966,0zm22.47205,37.08441l-21.36505,0c-1.7712,0 -2.87819,-0.9963 -2.87819,-2.76749l0,-28.67123c0,-1.7712 1.107,-2.65679 2.87819,-2.65679l16.82636,0l0,5.09219c0,0.9963 0.8856,1.8819 1.8819,1.8819l5.86709,0l0,24.35394c0.1107,1.7712 -1.3284,2.76749 -3.21029,2.76749zm-4.64939,-10.07368l-11.95557,0c-0.6642,0 -1.2177,-0.5535 -1.2177,-1.2177c0,-0.6642 0.5535,-1.2177 1.2177,-1.2177l11.84487,0c0.6642,0 1.2177,0.5535 1.2177,1.2177s-0.4428,1.2177 -1.107,1.2177zm0,-4.64939l-11.95557,0c-0.6642,0 -1.2177,-0.5535 -1.2177,-1.2177c0,-0.6642 0.5535,-1.2177 1.2177,-1.2177l11.84487,0c0.6642,0 1.2177,0.5535 1.2177,1.2177s-0.4428,1.2177 -1.107,1.2177zm0,-4.76009l-11.95557,0c-0.6642,0 -1.2177,-0.5535 -1.2177,-1.2177c0,-0.6642 0.5535,-1.2177 1.2177,-1.2177l11.84487,0c0.6642,0 1.2177,0.5535 1.2177,1.2177s-0.4428,1.2177 -1.107,1.2177z"/>
    </symbol>
	<symbol id="lock" viewBox="0 0 1024 1024">
              <path d="M864 448h-48v-144C816 136.4 679.6 0 512 0S208 136.4 208 304v144H160c-53 0-96 43-96 96v384c0 53 43 96 96 96h704c53 0 96-43 96-96V544c0-53-43-96-96-96z m-208 0H368v-144c0-79.4 64.6-144 144-144s144 64.6 144 144v144z"/>
    </symbol>
	<symbol id="unlock" viewBox="0 0 1024 1024">
              <path d="M987.428571 329.142857l0 146.285714q0 14.848-10.825143 25.746286t-25.746286 10.825143l-36.571429 0q-14.848 0-25.746286-10.825143t-10.825143-25.746286l0-146.285714q0-60.562286-42.861714-103.424t-103.424-42.861714-103.424 42.861714-42.861714 103.424l0 109.714286 54.857143 0q22.820571 0 38.838857 16.018286t16.018286 38.838857l0 329.142857q0 22.820571-16.018286 38.838857t-38.838857 16.018286l-548.571429 0q-22.820571 0-38.838857-16.018286t-16.018286-38.838857l0-329.142857q0-22.820571 16.018286-38.838857t38.838857-16.018286l384 0 0-109.714286q0-105.691429 75.117714-180.882286t180.882286-75.117714 180.882286 75.117714 75.117714 180.882286z"/>
    </symbol>
	<symbol id="xuehua" viewBox="0 0 1024 1024">
		<path d="M504.123077 328.467692c-8.664615 0-16.541538-3.150769-22.055385-9.452307L342.646154 179.593846c-12.603077-12.603077-12.603077-32.295385 0-44.898461 12.603077-12.603077 32.295385-12.603077 44.898461 0L504.123077 252.061538l116.578461-116.578461c12.603077-12.603077 32.295385-12.603077 44.898462 0 12.603077 12.603077 12.603077 32.295385 0 44.898461L526.178462 319.015385c-5.513846 6.301538-13.390769 9.452308-22.055385 9.452307zM364.701538 916.086154c-7.876923 0-15.753846-3.150769-22.055384-9.452308-12.603077-12.603077-12.603077-32.295385 0-44.898461l139.421538-139.421539c12.603077-12.603077 32.295385-12.603077 44.898462 0l139.421538 139.421539c12.603077 12.603077 12.603077 32.295385 0 44.898461-12.603077 12.603077-32.295385 12.603077-44.898461 0L504.123077 790.055385l-116.578462 116.578461c-6.301538 6.301538-14.966154 9.452308-22.843077 9.452308z"/>
		<path d="M504.123077 937.353846c-17.329231 0-31.507692-14.178462-31.507692-31.507692V118.153846c0-17.329231 14.178462-31.507692 31.507692-31.507692s31.507692 14.178462 31.507692 31.507692v787.692308c0 17.329231-14.178462 31.507692-31.507692 31.507692zM127.606154 486.793846c-14.178462 0-26.781538-9.452308-30.72-23.630769-4.726154-16.541538 5.513846-33.870769 22.055384-38.596923l159.901539-42.535385L236.307692 222.129231c-4.726154-16.541538 5.513846-33.870769 22.055385-38.596923 16.541538-4.726154 33.870769 5.513846 38.596923 22.055384l51.2 189.833846c2.363077 7.876923 0.787692 16.541538-3.150769 23.63077s-11.027692 12.603077-18.904616 14.966154l-189.833846 51.2c-3.150769 1.575385-6.301538 1.575385-8.664615 1.575384zM756.972308 850.707692c-14.178462 0-26.781538-9.452308-30.72-23.630769l-51.2-189.833846c-4.726154-16.541538 5.513846-33.870769 22.055384-38.596923l189.833846-51.2c16.541538-4.726154 33.870769 5.513846 38.596924 22.055384 4.726154 16.541538-5.513846 33.870769-22.055385 38.596924l-159.901539 42.535384 42.535385 159.901539c4.726154 16.541538-5.513846 33.870769-22.055385 38.596923-1.575385 0.787692-3.938462 1.575385-7.08923 1.575384z"/>
		<path d="M845.193846 740.430769c-5.513846 0-11.027692-1.575385-15.753846-3.938461l-682.141538-393.846154c-14.966154-8.664615-20.48-28.356923-11.815385-43.323077s28.356923-20.48 43.323077-11.815385l682.141538 393.846154c14.966154 8.664615 20.48 28.356923 11.815385 43.323077-6.301538 10.24-16.541538 15.753846-27.569231 15.753846zM267.027692 841.255385c-2.363077 0-5.513846 0-7.876923-0.787693-16.541538-4.726154-26.781538-22.055385-22.055384-38.596923l42.535384-159.901538-159.901538-42.535385c-16.541538-4.726154-26.781538-22.055385-22.055385-38.596923 4.726154-16.541538 22.055385-26.781538 38.596923-22.055385l189.833846 51.2c7.876923 2.363077 14.966154 7.089231 18.904616 14.966154s5.513846 15.753846 3.150769 23.63077l-51.2 189.833846c-3.938462 13.390769-16.541538 22.843077-29.932308 22.843077zM896.393846 477.341538c-2.363077 0-5.513846 0-7.876923-0.787692L697.895385 425.353846c-16.541538-4.726154-26.781538-22.055385-22.055385-38.596923L727.04 196.923077c4.726154-16.541538 22.055385-26.781538 38.596923-22.055385 16.541538 4.726154 26.781538 22.055385 22.055385 38.596923l-42.535385 159.901539 159.901539 42.535384c16.541538 4.726154 26.781538 22.055385 22.055384 38.596924-3.938462 14.178462-16.541538 22.843077-30.72 22.843076z"/>
		<path d="M163.052308 740.430769c-11.027692 0-21.267692-5.513846-27.569231-15.753846-8.664615-14.966154-3.150769-34.658462 11.815385-43.323077l682.141538-393.846154c14.966154-8.664615 34.658462-3.150769 43.323077 11.815385 8.664615 14.966154 3.150769 34.658462-11.815385 43.323077l-682.141538 393.846154c-4.726154 2.363077-10.24 3.938462-15.753846 3.938461z"/>
	</symbol>
	<symbol id="edit" viewBox="0 0 1024 1024">
		<path d="M507.428571 676.571429l66.285715-66.285715-86.857143-86.857143-66.285714 66.285715v32h54.857142v54.857143h32z m251.428572-411.428572q-9.142857-9.142857-18.857143 0.571429L540 465.714286q-9.714286 9.714286-0.571429 18.857143t18.857143-0.571429l200-200q9.714286-9.714286 0.571429-18.857143z m45.714286 339.428572v108.571428q0 68-48.285715 116.285714T640 877.714286H164.571429q-68 0-116.285715-48.285715T0 713.142857V237.714286q0-68 48.285714-116.285715T164.571429 73.142857h475.428571q36 0 66.857143 14.285714 8.571429 4 10.285714 13.142858 1.714286 9.714286-5.142857 16.571428l-28 28q-8 8-18.285714 4.571429-13.142857-3.428571-25.714286-3.428572H164.571429q-37.714286 0-64.571429 26.857143t-26.857143 64.571429v475.428571q0 37.714286 26.857143 64.571429t64.571429 26.857143h475.428571q37.714286 0 64.571429-26.857143t26.857142-64.571429v-72q0-7.428571 5.142858-12.571428l36.571428-36.571429q8.571429-8.571429 20-4t11.428572 16.571429z m-54.857143-421.714286l164.571428 164.571428-384 384H365.714286V566.857143z m253.714285 75.428571l-52.571428 52.571429-164.571429-164.571429 52.571429-52.571428q16-16 38.857143-16t38.857143 16l86.857142 86.857143q16 16 16 38.857142t-16 38.857143z"/>
	</symbol>
    <symbol id="pen" viewBox="0 0 128 128">
		<path d="M123.315,16L112.003,4.686C108.878,1.563,104.78,0,100.687,0s-8.188,1.563-11.313,4.686l-68.69,68.689
		C17.563,76.5,8.004,88.586,8,92.68L0,128l35.313-8c0,0,16.188-9.563,19.313-12.688l68.69-68.687
		C129.562,32.375,129.562,22.243,123.315,16z M10.605,117.398l5.195-22.953c0.074-0.328,0.129-0.664,0.16-0.992
		c0.016-0.047,0.059-0.117,0.078-0.164l18.09,18.094c-0.605,0.367-1.215,0.734-1.813,1.094L10.605,117.398z M48.984,101.641
		c-0.906,0.859-4.039,2.977-7.867,5.414L20.391,86.328c2.125-2.914,4.492-5.844,5.949-7.297l51.722-51.718l22.625,22.625
		L48.984,101.641z M117.659,32.969l-11.316,11.313L83.718,21.657l11.316-11.313C96.542,8.829,98.55,8,100.687,8
		s4.148,0.836,5.66,2.344l11.313,11.313c1.512,1.508,2.34,3.516,2.34,5.656C119.999,29.446,119.167,31.461,117.659,32.969z"/>
	</symbol>
	<symbol id="picture" viewBox="0 0 216 146">
		<path d="M182.384,14.258c-2.553-2.553-5.62-3.829-9.206-3.829H42.821c-3.585,0-6.653,1.276-9.207,3.829
		c-2.553,2.553-3.829,5.621-3.829,9.206v99.071c0,3.585,1.276,6.654,3.829,9.207c2.554,2.553,5.622,3.829,9.207,3.829H173.18
		c3.584,0,6.652-1.276,9.205-3.829s3.83-5.622,3.83-9.207V23.464C186.215,19.879,184.938,16.811,182.384,14.258z M175.784,122.534
		c0,0.707-0.257,1.317-0.773,1.834c-0.516,0.515-1.127,0.772-1.833,0.772H42.821c-0.706,0-1.317-0.257-1.833-0.772
		c-0.516-0.517-0.774-1.127-0.774-1.834V23.463c0-0.706,0.257-1.316,0.774-1.833c0.516-0.515,1.127-0.773,1.833-0.773H173.18
		c0.705,0,1.316,0.258,1.831,0.773c0.515,0.517,0.773,1.127,0.773,1.833V122.534z"/>
	    <path d="M66.286,62.571c4.346,0,8.039-1.52,11.081-4.562c3.041-3.042,4.562-6.735,4.562-11.08c0-4.346-1.522-8.039-4.562-11.081
		c-3.042-3.041-6.735-4.562-11.081-4.562c-4.345,0-8.038,1.521-11.08,4.562c-3.041,3.042-4.562,6.735-4.562,11.081
		c0,4.345,1.52,8.039,4.562,11.08S61.941,62.571,66.286,62.571z"/>
	    <polygon points="89.75,86.035 76.714,73 50.643,99.071 50.643,114.714 165.357,114.714 165.357,78.214 131.465,44.321 	"/>
	</symbol>
    <symbol id="yes" viewBox="0 0 1357 1024">
		<path d="M1296.749468 244.39132c26.802989-27.289989 40.869983-61.350975 42.479983-101.796958 1.322999-40.769983-11.093995-74.833969-38.255985-102.476958-26.479989-27.286989-59.479976-40.771983-98.085959-40.092984-38.930984 1-71.92997 14.837994-98.41396 42.448983L473.329806 689.969137 256.184895 469.534227c-26.479989-27.642989-59.510976-41.801983-98.41096-42.479982-38.576984-1-71.609971 12.483995-98.123959 40.123983-27.124989 27.642989-40.541983 59.996975-41.510983 97.41496-1 37.736985 12.417995 70.440971 39.256983 97.73296l310.941873 321.555868c26.838989 27.287989 61.832975 40.767983 104.991957 40.093984 43.189982-1.003 78.476968-14.808994 104.959957-42.446983l-8.482997 9.094997L1296.749468 244.39032z"/>
        </symbol>
    <symbol id="no" viewBox="0 0 1024 1024">
    	<path d="M613.316249 509.579623l224.87829-224.871064c28.213646-28.220871 28.213646-73.962379 0-102.176025-28.220871-28.213646-73.955154-28.213646-102.18325 0L511.140224 407.396373 286.26916 182.532534c-28.220871-28.213646-73.955154-28.213646-102.18325 0-28.213646 28.213646-28.213646 73.962379 0 102.176025L408.956975 509.579623l-224.871065 224.87829c-28.213646 28.220871-28.213646 73.962379 0 102.18325a72.047753 72.047753 0 0 0 51.088012 21.16204 72.047753 72.047753 0 0 0 51.088013-21.16204l224.871064-224.87829 224.87829 224.87829a72.047753 72.047753 0 0 0 51.088012 21.16204 72.033303 72.033303 0 0 0 51.088013-21.16204c28.213646-28.220871 28.213646-73.962379 0-102.18325L613.316249 509.579623z"/>
        </symbol>
    <symbol id="loading" viewBox="0 0 40 40">
		<path opacity=".2" fill="#FF6700" d="M20.201 5.169c-8.254 0-14.946 6.692-14.946 14.946 0 8.255 6.692 14.946 14.946 14.946s14.946-6.691 14.946-14.946c-.001-8.254-6.692-14.946-14.946-14.946zm0 26.58c-6.425 0-11.634-5.208-11.634-11.634 0-6.425 5.209-11.634 11.634-11.634 6.425 0 11.633 5.209 11.633 11.634 0 6.426-5.208 11.634-11.633 11.634z"/>
		<path fill="#FF6700" d="M31.135 16.65l3.15-1.017a14.855 14.855 0 0 0-4.19-6.5l-2.22 2.457a11.57 11.57 0 0 1 3.26 5.06z">
		<animateTransform attributeType="xml" attributeName="transform" type="rotate" from="0 20 20" to="360 20 20" dur="0.5s" repeatCount="indefinite"/></path>
        </symbol>
	<symbol id="stop" viewBox="0 0 17 16">
		<path d="M1.002 1c0-.553.444-1 .993-1h3.972c.549 0 .993.447.993 1v14c0 .553-.444 1-.993 1H1.995a.996.996 0 0 1-.993-1V1zM9.002 1c0-.553.444-1 .993-1h3.972c.549 0 .993.447.993 1v14c0 .553-.444 1-.993 1H9.995a.996.996 0 0 1-.993-1V1z" />
	</symbol>
    <symbol id="play" viewBox="0 0 22 28">
		<path d="M21.415 12.554L2.418.311C1.291-.296 0-.233 0 1.946v24.108c0 1.992 1.385 2.306 2.418 1.635l18.997-12.243a2.076 2.076 0 0 0 0-2.892" fill-rule="evenodd"/>
	</symbol>
	<symbol id="clipboard" viewBox="0 0 1024 1024">
		<path d="M438.857143 950.857143h512v-365.714286h-237.714286q-22.857143 0-38.857143-16t-16-38.857143V292.571429H438.857143v658.285714z m146.285714-822.857143v-36.571429q0-7.428571-5.428571-12.857142T566.857143 73.142857H164.571429q-7.428571 0-12.857143 5.428572T146.285714 91.428571v36.571429q0 7.428571 5.428572 12.857143T164.571429 146.285714h402.285714q7.428571 0 12.857143-5.428571t5.428571-12.857143z m146.285714 384h170.857143l-170.857143-170.857143v170.857143z m292.571429 73.142857v384q0 22.857143-16 38.857143t-38.857143 16H420.571429q-22.857143 0-38.857143-16t-16-38.857143v-91.428571H54.857143q-22.857143 0-38.857143-16t-16-38.857143V54.857143q0-22.857143 16-38.857143T54.857143 0h621.714286q22.857143 0 38.857142 16t16 38.857143v187.428571q12 7.428571 20.571429 16l233.142857 233.142857q16 16 27.428572 43.428572t11.428571 50.285714z"/>
	</symbol>
    <symbol id="file" viewBox="0 0 1024 1024">
    	<path d="M576 272V0H176C149.4 0 128 21.4 128 48v928c0 26.6 21.4 48 48 48h672c26.6 0 48-21.4 48-48V320H624c-26.4 0-48-21.6-48-48z m320-28.2v12.2H640V0h12.2c12.8 0 25 5 34 14l195.8 196c9 9 14 21.2 14 33.8z"/>
    </symbol>
	<symbol id="tag" viewBox="0 0 1024 1024">
		<path d="M768 290.133333a34.133333 34.133333 0 0 1-24.132267-58.2656l170.666667-170.666666a34.133333 34.133333 0 1 1 48.264533 48.264533l-170.666666 170.666667A33.9968 33.9968 0 0 1 768 290.133333z"/>
		<path d="M426.666667 955.733333a17.015467 17.015467 0 0 1-12.066134-5.000533l-341.333333-341.333333a17.0496 17.0496 0 0 1 0-24.132267l426.666667-426.666667A17.015467 17.015467 0 0 1 512 153.6h341.333333a17.066667 17.066667 0 0 1 17.066667 17.066667v341.333333c0 4.522667-1.792 8.874667-5.000533 12.066133l-426.666667 426.666667A17.015467 17.015467 0 0 1 426.666667 955.733333zM109.4656 597.333333L426.666667 914.5344l409.6-409.6V187.733333H519.0656l-409.6 409.6zM426.666667 795.306667a17.066667 17.066667 0 0 1-17.066667-17.066667v-79.530667l-31.5392 31.0784a17.0496 17.0496 0 1 1-23.9616-24.302933L409.6 650.786133v-36.130133l-35.566933 0.494933-55.7056 54.920534a17.0496 17.0496 0 1 1-23.9616-24.302934l31.249066-30.805333L245.640533 614.4a17.066667 17.066667 0 0 1-16.9472-17.186133c0.068267-9.437867 7.0144-16.8448 17.186134-16.9472l79.5648 0.5632-31.163734-31.163734a17.0496 17.0496 0 1 1 24.132267-24.132266l55.483733 55.483733 35.9424-0.512 0.512-35.925333-55.483733-55.483734a17.0496 17.0496 0 1 1 24.132267-24.132266l31.163733 31.163733L409.6 416.546133a17.066667 17.066667 0 0 1 16.9472-17.186133H426.666667a17.066667 17.066667 0 0 1 17.066666 16.9472l0.5632 79.9744 30.805334-31.249067a17.066667 17.066667 0 1 1 24.302933 23.9616l-54.920533 55.7056-0.512 35.566934h36.130133l54.7328-55.5008a17.066667 17.066667 0 1 1 24.302933 23.9616L528.042667 580.266667h79.530666a17.066667 17.066667 0 1 1 0 34.133333h-79.121066l31.453866 31.453867a17.0496 17.0496 0 1 1-24.132266 24.132266L480.187733 614.4H443.733333v36.4544l55.586134 55.586133a17.0496 17.0496 0 1 1-24.132267 24.132267L443.733333 699.118933V778.24a17.066667 17.066667 0 0 1-17.066666 17.066667z"/>
	</symbol>
	<symbol id="folder" viewBox="0 0 1024 1024">
		<path d="M1109.333333 1024l-85.333333 0L85.333333 1024c-23.552 0-44.885333-9.557333-60.330667-25.002667C9.557333 983.552 0 962.218667 0 938.666667L0 256 0 85.333333c0-47.104 38.229333-85.333333 85.333333-85.333333l426.666667 0c20.224 0 38.058667 8.021333 52.650667 19.797333C632.405333 64.085333 700.245333 170.666667 768 170.666667l341.333333 0c47.104 0 85.333333 38.144 85.333333 85.333333l0 682.666667C1194.666667 985.770667 1156.437333 1024 1109.333333 1024z"/>
	</symbol>
    <symbol id="comment" viewBox="0 0 1024 1024">
		<path d="M1023.908229 511.871666q0 99.376228-68.517679 183.688804t-186.248162 133.086633-257.105826 48.847182q-39.999115 0-82.850085-4.53372-113.123638 99.961224-262.809538 138.278474-28.006693 7.970573-65.153951 12.577418-9.725562 1.169992-17.403637-5.118717t-10.01806-16.599267l0-0.584996q-1.681864-2.26686-0.292498-6.873705t1.169992-5.703713 2.559358-5.411215l3.436853-5.118717t4.021849-4.826219 4.53372-5.118717q4.021849-4.53372 17.696135-19.743621t19.743621-21.717984 17.696135-22.595478 18.573629-29.10356 15.429275-33.710405 14.844278-43.435967q-89.723791-50.821544-141.422829-125.701056t-51.699038-160.50833q0-74.294516 40.584111-141.934701t109.101789-116.852989 163.360186-77.950742 198.82558-28.884187q139.375342 0 257.105826 48.847182t186.248162 133.086633 68.517679 183.688804z"/>
	</symbol>
    <symbol id="back" viewBox="0 0 1024 1024">
		<path d="M528.527 1024c-16.05 0-32.099-5.98-44.345-17.981L24.469 555.5c-24.492-23.962-24.492-62.874 0-86.876l459.713-450.56c24.492-24.003 64.157-24.003 88.649 0 24.492 23.962 24.492 62.874 0 86.876L157.463 512.041l415.368 407.06c24.492 24.003 24.492 62.874 0 86.876-12.204 12.042-28.254 18.022-44.304 18.022z"/>
	<symbol>
	<symbol id="right" viewBox="0 0 1024 1024">
		<path d="M312.56325 61.85579c15.286148 0 29.522384 5.878894 40.166815 16.564257l389.69649 390.391315c1.425466 1.39272 2.537799 2.577708 3.449565 3.846608l2.304486 2.905166c11.362792 11.416004 16.945951 24.848944 16.945951 39.068807 0 14.475689-5.708002 28.010961-16.056698 38.110993L356.692307 940.958702c-10.612709 10.467399-24.785499 16.236799-39.892569 16.236799-14.772448 0-28.726252-5.599532-39.287795-15.753799-10.497075-10.18599-16.538675-24.390503-16.538675-38.95215 0-14.382569 5.722328-28.009937 16.142655-38.366819l353.968777-350.170265L272.59905 154.524352c-10.249435-10.30981-15.909341-23.781636-15.909341-37.994336 0-14.889105 6.051833-28.859281 17.000186-39.333844C284.109198 67.306942 297.939181 61.85579 312.56325 61.85579z"/>
	</symbol>
    <symbol id="love" viewBox="0 0 1024 1024">
		<path d="M886.569466 242.750743c-8.213056-10.284227-28.167526-30.750351-30.825053-32.767288-2.052752-1.556449-4.179183-4.64581-7.450692-7.832386-18.47784-17.995863-61.873186-51.460022-126.468366-51.460022-66.850547 0-139.318022 35.724643-210.416314 105.994056-71.098291-70.26839-143.565766-105.994056-210.416314-105.994056-64.596204 0-107.990526 33.464159-126.468366 51.460022-3.27151 3.186576-5.398964 6.274914-7.450692 7.832386-2.657526 2.016937-22.611997 22.48306-30.826076 32.767288C88.247368 302.856679 65.914734 365.368408 75.656609 433.852152c33.679054 236.367359 405.314189 440.549691 421.846724 448.989921l13.905708 7.103792 13.905708-7.103792c16.532535-8.44023 388.168694-212.621539 421.846724-448.989921C956.902324 365.368408 934.570713 302.856679 886.569466 242.750743zM892.996852 426.133354c-26.287713 184.551226-310.75558 362.010941-381.587811 400.890436-70.833255-38.879496-355.300099-216.33921-381.588835-400.890436-8.893554-62.389956 14.68956-118.984928 75.210959-176.460967 0.346901-0.453325 34.05256-44.281529 95.962585-44.281529 57.610092 0 121.148198 37.096896 188.799994 110.223381l21.615297 23.353894 21.615297-23.353894c67.651796-73.126484 131.189901-110.223381 188.801017-110.223381 61.909002 0 95.615685 43.828204 95.961562 44.281529C878.308315 307.148425 901.89143 363.743398 892.996852 426.133354z"/>
	</symbol>
    <symbol id="gravatar" viewBox="0 0 1024 1024">
        <path d="M512.000427 0a102.4 102.4 0 0 0-102.4 102.4v358.4c0 56.490667 45.824 102.314667 102.4 102.314667s102.4-45.824 102.4-102.314667V222.293333a307.370667 307.370667 0 0 1 204.757333 289.664 307.2 307.2 0 1 1-524.373333-217.173333 102.4 102.4 0 1 0-144.896-144.896A511.061333 511.061333 0 0 0 0.000427 512c0 282.752 229.248 512 512 512s512-229.248 512-512S794.752427 0 512.000427 0"/>
    </symbol>
    <symbol id="caidan" viewBox="0 0 1024 1024">
         <path d="M1.114 511.774c0-56.444 45.767-102.177 102.177-102.177 56.444 0 102.175 45.733 102.175 102.176 0 56.444-45.731 102.178-102.175 102.178C46.881 613.951 1.114 568.218 1.114 511.774zM409.822 511.774c0-56.444 45.767-102.177 102.178-102.176 56.443 0 102.177 45.733 102.177 102.175 0 56.444-45.733 102.178-102.177 102.178C455.589 613.951 409.822 568.218 409.822 511.774zM818.532 511.774c0-56.444 45.767-102.176 102.177-102.176 56.443 0 102.177 45.733 102.177 102.175 0 56.444-45.733 102.178-102.177 102.178C864.299 613.951 818.532 568.218 818.532 511.774z"/>
    </symbol>
    <symbol id="backtop" viewBox="0 0 1024 1024">
    <path d="M1024 737.28L512 220.16 0 737.28l71.68 66.56L512 358.4l440.32 445.44z"/>
    </symbol>
    <symbol id="calendar" viewBox="0 0 1024 1024">
        <path d="M900.89 137H734.22V81.44a27.78 27.78 0 1 0-55.56 0V137H345.33V81.44a27.78 27.78 0 1 0-55.56 0V137H123.11A111.22 111.22 0 0 0 12 248.11v611.11a111.22 111.22 0 0 0 111.11 111.11h777.78A111.22 111.22 0 0 0 1012 859.22V248.11A111.22 111.22 0 0 0 900.89 137z m-777.78 55.56h166.67v55.56a27.78 27.78 0 1 0 55.56 0v-55.56h333.33v55.56a27.78 27.78 0 1 0 55.56 0v-55.56h166.66a55.63 55.63 0 0 1 55.56 55.56v83.33H67.56v-83.34a55.63 55.63 0 0 1 55.55-55.55z m777.78 722.22H123.11a55.63 55.63 0 0 1-55.56-55.56V387h888.89v472.22a55.63 55.63 0 0 1-55.55 55.56z"/>
        <path d="M789.78 539.78H234.22a27.78 27.78 0 1 0 0 55.56h555.56a27.78 27.78 0 1 0 0-55.56zM789.78 706.44H234.22a27.78 27.78 0 1 0 0 55.56h555.56a27.78 27.78 0 0 0 0-55.56z"/>
    </symbol>
    <symbol id="fire" viewBox="0 0 1024 1024">
    <path d="M869.280537 969.142857v36.571429q0 7.428571-5.428571 12.857143t-12.857143 5.428571H82.994823q-7.428571 0-12.857143-5.428571T64.709109 1005.714286v-36.571429q0-7.428571 5.428571-12.857143T82.994823 950.857143h768q7.428571 0 12.857143 5.428571t5.428571 12.857143zM722.994823 365.714286q0 44.571429-14 82.285714t-36.571429 64.285714-50 50.285715-54.857143 44.285714-50 41.142857-36.571428 46.571429T466.994823 749.714286q0 54.857143 38.285714 128l-2.285714-0.571429 0.571428 0.571429q-51.428571-23.428571-91.428571-47.428572t-79.142857-57.142857T268.13768 703.142857 226.709109 617.142857 210.994823 512q0-44.571429 14-82.285714t36.571428-64.285715 50-50.285714 54.857143-44.285714 50-41.142857 36.571429-46.571429T466.994823 128q0-53.714286-37.714286-128l1.714286 0.571429-0.571429-0.571429q51.428571 23.428571 91.428572 47.428571t79.142857 57.142858T665.851966 174.571429t41.428571 86 15.714286 105.142857z"/>
    </symbol>
    <symbol id="commenting" viewBox="0 0 1024 1024">
         <path d="M365.714286 512q0-30.285714-21.428572-51.714286T292.571429 438.857143t-51.714286 21.428571T219.428571 512t21.428572 51.714286T292.571429 585.142857t51.714285-21.428571T365.714286 512z m219.428571 0q0-30.285714-21.428571-51.714286T512 438.857143t-51.714286 21.428571T438.857143 512t21.428571 51.714286T512 585.142857t51.714286-21.428571T585.142857 512z m219.428572 0q0-30.285714-21.428572-51.714286T731.428571 438.857143t-51.714285 21.428571T658.285714 512t21.428572 51.714286 51.714285 21.428571 51.714286-21.428571T804.571429 512z m219.428571 0q0 99.428571-68.571429 183.714286t-186.285714 133.142857-257.142857 48.857143q-62.857143 0-120.571429-10.285715-98.857143 98.857143-248.571428 130.857143-29.714286 5.714286-49.142857 7.428572-6.857143 0.571429-12.571429-3.428572t-7.428571-10.285714q-2.285714-8.571429 11.428571-21.142857 2.857143-2.857143 13.428572-12.285714T113.142857 945.142857t13.428572-14.571428 13.714285-18 11.714286-21.142858 11.428571-27.428571 8.285715-32.857143T178.857143 789.714286q-83.428571-51.428571-131.142857-123.714286T0 512q0-99.428571 68.571429-183.714286t186.285714-133.142857T512 146.285714t257.142857 48.857143 186.285714 133.142857T1024 512z"/>
    </symbol>
    <symbol id="comments-o" viewBox="0 0 1024 1024">
        <path d="M402.285714 219.428571c-178.285714 0-329.142857 100.571429-329.142857 219.428572 0 62.866286 42.276571 123.428571 115.419429 165.705143l55.442285 32-20.004571 48.018285c11.995429-6.838857 23.990857-14.299429 35.437714-22.272l25.161143-17.700571 30.281143 5.705143c28.562286 5.156571 57.709714 8.009143 87.442286 8.009143 178.285714 0 329.142857-100.571429 329.142857-219.428572s-150.857143-219.428571-329.142857-219.428571z m0-73.142857c222.281143 0 402.285714 130.852571 402.285715 292.571429s-180.004571 292.571429-402.285715 292.571428c-34.852571 0-68.571429-3.437714-100.571428-9.142857a479.597714 479.597714 0 0 1-158.866286 73.142857 423.497143 423.497143 0 0 1-49.152 9.142858h-1.718857c-8.557714 0-16.566857-6.838857-18.285714-16.566858-2.304-10.861714 5.156571-17.700571 11.446857-25.161142 22.272-25.161143 47.433143-47.433143 66.852571-94.866286C59.428571 614.253714 0 531.419429 0 438.820571c0-161.718857 180.004571-292.571429 402.285714-292.571428z m469.723429 668.013715c19.419429 47.433143 44.580571 69.705143 66.852571 94.866285 6.290286 7.424 13.714286 14.299429 11.446857 25.161143-2.304 10.276571-10.861714 17.700571-20.004571 16.566857a423.497143 423.497143 0 0 1-49.152-9.142857 479.597714 479.597714 0 0 1-158.866286-73.142857c-32 5.705143-65.718857 9.142857-100.571428 9.142857-103.424 0-198.290286-28.562286-269.714286-75.446857a746.057143 746.057143 0 0 0 50.285714 2.304c122.843429 0 238.848-35.437714 327.424-99.437714C825.124571 635.465143 877.714286 541.184 877.714286 438.893714c0-29.696-4.571429-58.843429-13.129143-86.857143C961.170286 405.174857 1024 489.764571 1024 585.179429c0 93.147429-59.428571 175.433143-151.990857 229.156571z"/>
    </symbol>
    <symbol id="pull_down" viewBox="0 0 1024 1024">
    <path d="M512 960C264.96 960 64 759.04 64 512S264.96 64 512 64s448 200.96 448 448-200.96 448-448 448z m0-832c-211.744 0-384 172.256-384 384s172.256 384 384 384 384-172.256 384-384-172.256-384-384-384z m182.56 394.144c-12.544-12.608-33.376-12.64-45.952-0.064L544 625.984V319.328c0-17.76-14.208-32.16-32-32.16-17.76 0-32 14.4-32 32.16v308.32L374.784 520.96c-12.48-12.608-32.704-12.736-45.312-0.256-12.64 12.512-12.672 32.896-0.192 45.504l159.36 161.056a32.187 32.187 0 0 0 22.88 9.568c8.16 0 16.384-3.168 22.624-9.312l0.064-0.128c0.032 0 0.064 0 0.096-0.064l160.192-159.68c12.576-12.544 12.608-32.928 0.064-45.504z"/>
    </symbol>
    <symbol id="notification" viewBox="0 0 1024 1024">
    <path d="M526.432 924.064c-20.96 0-44.16-12.576-68.96-37.344L274.752 704H192c-52.928 0-96-43.072-96-96V416c0-52.928 43.072-96 96-96h82.752l182.624-182.624c24.576-24.576 47.744-37.024 68.864-37.024C549.184 100.352 576 116 576 160v704c0 44.352-26.72 60.064-49.568 60.064zM192 384c-17.632 0-32 14.368-32 32v192c0 17.664 14.368 32 32 32h96c8.48 0 16.64 3.36 22.624 9.376l192.064 192.096c3.392 3.36 6.496 6.208 9.312 8.576V174.016a145.824 145.824 0 0 0-9.376 8.608l-192 192C304.64 380.64 296.48 384 288 384h-96z m495.584 346.368a31.898 31.898 0 0 1-18.656-6.016c-14.336-10.304-17.632-30.304-7.328-44.672l12.672-17.344C707.392 617.44 736 578.624 736 512c0-69.024-25.344-102.528-57.44-144.928-5.664-7.456-11.328-15.008-16.928-22.784-10.304-14.336-7.04-34.336 7.328-44.672 14.368-10.368 34.336-7.04 44.672 7.328 5.248 7.328 10.656 14.464 15.968 21.504C764.224 374.208 800 421.504 800 512c0 87.648-39.392 141.12-74.144 188.32l-12.224 16.736c-6.272 8.704-16.064 13.312-26.048 13.312z m108.864 108.64a31.906 31.906 0 0 1-21.088-7.936c-13.28-11.648-14.624-31.872-2.976-45.152C836.608 712.672 896 628.864 896 512s-59.392-200.704-123.616-273.888c-11.648-13.312-10.304-33.504 2.976-45.184 13.216-11.648 33.44-10.336 45.152 2.944C889.472 274.56 960 373.6 960 512s-70.528 237.472-139.488 316.096c-6.368 7.232-15.2 10.912-24.064 10.912z"/>
    <symbol>
    <symbol id="hot" viewBox="0 0 1024 1024">
        <path d="M447.136 943.52c-3.36 0-6.752-0.544-10.112-1.664-139.04-46.4-234.784-169.536-244.224-310.752C192.256 628.864 192 626.528 192 624.128c0-158.208-53.792-217.12-54.336-217.696-8.992-9.536-11.424-23.808-5.856-35.68 5.568-11.872 17.92-19.392 30.72-18.56 9.952 0.608 98.592 6.72 144.48 37.312 22.112 14.72 40.384 42.048 54.08 68.672 47.552-138.944 24.64-356 24.352-358.56-1.376-12.608 4.8-24.8 15.744-31.168 10.944-6.336 24.608-5.664 34.848 1.76 8.768 6.368 186.336 136.128 267.776 268.768 4.096-31.232 5.024-72.512 1.568-112.064-1.152-13.088 5.824-25.568 17.6-31.424 11.744-5.888 25.952-3.968 35.68 4.832 5.984 5.344 145.696 134.368 138.72 408.608 0 125.6-68.448 242.912-178.624 305.376-12.288 6.976-27.776 5.056-38.016-4.8-10.176-9.856-12.704-25.216-6.176-37.792 10.656-20.48 16.032-41.664 16.032-62.976 1.792-70.208-83.648-146.784-151.552-194.464 6.176 54.88 7.456 125.568-18.528 163.84-5.024 7.36-12.896 12.32-21.728 13.664-8.96 1.184-17.824-1.152-24.768-6.688-0.352-0.288-34.848-27.872-66.496-45.6-15.392-8.64-20.928-28.128-12.288-43.52s28.128-20.896 43.552-12.288c13.28 7.392 26.688 16.128 38.432 24.256 4.608-42.752-3.104-108.672-12.448-151.84-2.656-12.256 2.08-24.928 12.128-32.416 10.016-7.52 23.52-8.448 34.528-2.4 25.088 13.792 243.136 137.856 243.168 284.48 49.792-52.768 78.752-123.296 78.752-197.632 3.328-131.84-30.944-226.08-63.328-285.056-3.936 48.64-16.032 98.912-47.008 119.648-8.352 5.568-18.848 6.944-28.416 3.584-9.504-3.328-16.864-10.976-19.904-20.576-28.736-91.328-148.544-200.672-220.64-260.032 4.16 102.432 0.48 286.944-69.088 388.544-6.944 10.08-19.168 15.232-31.104 13.568-12.096-1.824-22.144-10.368-25.824-22.048-10.816-34.304-35.52-88.96-56.544-102.944-11.2-7.456-29.856-13.376-49.696-17.76 16.16 38.56 31.68 96.48 33.888 178.976C255.904 605.344 256 606.72 256 608.128c0 121.216 82.752 233.504 201.248 273.056 16.768 5.6 25.824 23.712 20.224 40.48C472.992 935.072 460.512 943.52 447.136 943.52z"/>
    </symbol>
</svg>