<svg class="sitelogo" xmlns="http://www.w3.org/2000/svg" viewBox="0 0 1373 243.37">
    <path class="sitelogo-mi" d="M126.06,38.28c16.29-16.57,23.19,7.76,27.73,17.59,7.64,7.06,19.39,14.93,17.38,28.46C147,102.59,115.56,61,126.06,38.28Zm21.32,90c.79.73,1.58,1.46,2.39,2.18-3.36,8.28-36.78,35.35-34.36,49.38,13.18,25.71,42.85-26.7,57-40.49,1.32,12.62-4.22,37.74,2.71,50.83,32.5,22.79,22.76-27.34,25.72-44.23,21.14-2.89,40.2,49.38,64,31,4.32-19.53-20.2-33.67-30.09-50.66,25.31,9.55,47.82-39.44-32.19-35.3.17-2,.33-3.94.6-5.9,48.67,8.19,56-81.1,9-43.39,2.41,11.88-.73,22.43-8.54,30.14C198.11,53.15,221.26,4.7,185.9,12.27c-16.9,11-4.39,10.16-11.25,77.73-20.36,9.83-73.24-12.57-66.42,31.23,9.77,14.77,25.92,11.49,39.15,7ZM75.61,82C82,71.74,81.05,17,55.55,25.58,34.79,28.49,54.32,100,75.61,82ZM292,211.52c1.59-29.68-77.69,4.6-213.46-27.78,9-12-6-19.72-12.42-28.66-11.82-6.44,38-55.35-19.12-47.86-20.47.37-29.4,16.63-14.1,32.52,3.06,15.64-6.46,27.18,11.9,42,14.83,19.2-41.36,15.11-33.7,41.84,1,8.77,8,13.66,15.84,13.8,75-31.27,43.71-19.64,140-9C178.31,227.39,298.68,241.23,292,211.52Z"/>
    <path class="sitelogo-de" d="M437.22,68.73c131.46-17.4,107,193.17,15.86,137.67,1.09-4.48,4.08-7.28,10.43-6.15,53.11-6.34,49.34-109.94-10.18-101.14.55.83,1.11,1.67,1.68,2.5-19.52,94.09-90.95,100.91-114.86,72.32C308.31,115.21,415.52,65,437.22,68.73Zm-20.9,36.87c-114.9,49.1-14.83,106.8,10-2.4C422.88,103.47,419.38,103.9,416.32,105.6Z"/>
    <path class="sitelogo-shou" d="M621.93,44.14C708,37,792.13,57,763.64,99.37,740.16,104.14,727,72.9,700.26,76c-29.79,16.75-44.1,53.42-43.49,88.06,6.08,37.56,49.45,33.1,78.79,36.2,2.7,3,3.57,7.36,6.33,10.44-6.74,36.92-181.64,20.93-80.6-136.59-55.21,1.39-47.5,10.51-74.72,13.56C564,90,554.64,60.76,575.06,50.62,588.75,42.71,605.59,48,621.93,44.14Z"/>
    <path class="sitelogo-zhi" d="M1034.56,13.42a22.15,22.15,0,0,1,25.71,4.93C1093.64,88.86,995.05,37.71,1034.56,13.42Zm-153.81,66c-22.44,3-46.36,2-60.07,20.56.26,9,4.44,15.07,8,21.14,12,4.71,26.87,3,37.32-1-2,18.65-66.74,139.9-7,108.59,12-38.72,20.16-76.21,37.42-112.57,47.25-15.68,79.37,57.65,53.73,92.81-16.33,8.16-33.07-10.66-47.33-6-3.42,10,6.92,15.81,12.77,20.05,97.93,53.1,95-135.65-7.61-139.82.73-14.06,36-89.32-4.4-66-9.68,13.82-9.89,38-22.83,62.25Zm143.18-17.18c13.24-17.84-8.29-37.87-26.51-34.91-24.19,19.82,2.25,47,26.51,34.92Zm-20.39,61c15,16.07,28.65,69.72,52.84,36.78-3.22-11.75-43.6-94.64-68.69-87.57-37.3,13.75,1.49,35.86,15.85,50.8Z"/>
    <path class="sitelogo-zhi" d="M1171,54.18c126.76,9.46,100.62,10,65.72,73.55,10.24,7,24.14,9.26,36.9,12.83,3.05-10.29,11.93-21.73,8.93-33.83a8.34,8.34,0,0,1,1.92-1.83c3.33-16.84,24.68-11.73,28,2.45-1,14.44-8.64,30.37-9.26,46.27,16.55,10.7,83.57,47.76,36.81,61-16.87-7.73-31.4-25.45-50.11-31.6-34.19,58.87-74.79,47.54-59.9,27.16,11.55-13.33,29-23.68,31.73-41.85-20.24-6.79-48.73-22.79-59,4.54-42.26,52.16-37.12,70.75-86.3,32-23.22-43.73,39.3-77,77.61-76.13,14.49-4.58,22.67-22.81,29.88-36.12-19.33-6.32-72.18,16.15-68.47-21.76C1154.87,61.94,1163.9,58.84,1171,54.18Zm-17.81,117c-4.79,4.69-10.82,11.73-11,20.38,11.21,4.6,27-20.47,31.13-29.21-7.6.65-14,4.89-20.16,8.87Z"/>
</svg>